# xmcd
#
# Track frame offsets:
#	150
#	13862
#	24945
#	34565
#	54272
#	64812
#	77235
#	89567
#	106665
#	120740
#
# Disc length: 1787
#
# Revision: 1
# Processed by: cddbd v1.5.1PL0 Copyright (c) Steve Scherf et al.
# Submitted via: ExactAudioCopy v0.90b2
# Normalized: r0:DSETVAR1
#
DISCID=7306f90a
DTITLE=Various Artist - Country Greats
DYEAR=1991
DGENRE=Country
TTITLE0=Jimmy Dean - Big Bad John
TTITLE1=Roger Miller - King Of The Road
TTITLE2=Ned Miller - From A Jack To A King
TTITLE3=Marty Robbins - El Paso
TTITLE4=Leroy Van Dyke - Walk On By
TTITLE5=Johnny Cash - I Walk The Line
TTITLE6=Hank Williams Sr. - Lovesick Blues
TTITLE7=C. W. McCall - Convoy
TTITLE8=Jim Stafford - Spiders And Snakes
TTITLE9=Dickey Lee - Patches
EXTD=
EXTT0=
EXTT1=
EXTT2=
EXTT3=
EXTT4=
EXTT5=
EXTT6=
EXTT7=
EXTT8=
EXTT9=
PLAYORDER=
